OpenSim_Sub08_CSBaseline_RCS.mot
version=1
nRows=47
nColumns=11
inDegrees=no
endheader
time	Top_Thigh	Med_Thigh	Bot_Thigh	Top_Shank	2nd_Top_Shank	2nd_Bot_Shank	Bot_Shank	BNOx	BNOy	BNOZ
0	1859.91723083	1769.03181294	1548.53629290	1337.26919096	1332.73422708	1327.87518509	1166.60977589	351.88523671	-74.56040674	-169.56626358
0.01000000	1859.76926811	1768.92659886	1548.17092316	1336.63298361	1333.26715831	1327.78398142	1166.26788918	351.88983884	-74.56191885	-169.56819972
0.02000000	1859.55595777	1768.72310853	1547.83324674	1335.98553474	1333.72484233	1327.70293347	1165.91895289	351.89472209	-74.56436038	-169.56769627
0.03000000	1859.28335610	1768.44147342	1547.53128335	1335.33948712	1334.10400024	1327.63064567	1165.57059099	351.89994697	-74.56760281	-169.56526456
0.04000000	1858.95751937	1768.10182506	1547.27305273	1334.70748349	1334.40135314	1327.56572248	1165.23042742	351.90557401	-74.57151760	-169.56141591
0.05000000	1858.58450387	1767.72429493	1547.06657457	1334.10216662	1334.61362211	1327.50676833	1164.90608613	351.91166374	-74.57597625	-169.55666166
0.06000000	1858.17036588	1767.32901453	1546.91986861	1333.53617926	1334.73752827	1327.45238766	1164.60519108	351.91827666	-74.58085022	-169.55151313
0.07000000	1857.72116169	1766.93611538	1546.84095457	1333.02216416	1334.76979269	1327.40118491	1164.33536621	351.92547332	-74.58601100	-169.54648165
0.08000000	1857.24294756	1766.56572896	1546.83785216	1332.57276408	1334.70713648	1327.35176451	1164.10423548	351.93331423	-74.59133005	-169.54207856
0.09000000	1856.74177979	1766.23798677	1546.91858111	1332.20062178	1334.54628074	1327.30273092	1163.91942283	351.94185992	-74.59667886	-169.53881517
0.10000000	1856.22371465	1765.97302033	1547.09116113	1331.91838000	1334.28394654	1327.25268856	1163.78855222	351.95117090	-74.60192890	-169.53720283
0.11000000	1855.69480843	1765.79096112	1547.36361195	1331.73868151	1333.91685500	1327.20024189	1163.71924759	351.96130771	-74.60695164	-169.53775285
0.12000000	1855.16111741	1765.71194065	1547.74395328	1331.67416905	1333.44172721	1327.14399533	1163.71913291	351.97233086	-74.61161858	-169.54097657
0.13000000	1854.62869786	1765.75609041	1548.24020485	1331.73748539	1332.85528425	1327.08255333	1163.79583211	351.98430089	-74.61580117	-169.54738532
0.14000000	1854.10360607	1765.94354192	1548.86038637	1331.94127327	1332.15424723	1327.01452033	1163.95696914	351.99727830	-74.61937091	-169.55749042
0.15000000	1853.59261142	1766.28992915	1549.60869365	1332.29404031	1331.33896674	1326.93907969	1164.20771281	352.01128703	-74.62222695	-169.57170503
0.16000000	1853.10775343	1766.77764665	1550.46106144	1332.77373275	1330.43661757	1326.85969343	1164.53508677	352.02608046	-74.62447314	-169.58971677
0.17000000	1852.66343378	1767.37419095	1551.38075778	1333.34459917	1329.48639723	1326.78174124	1164.91798195	352.04129073	-74.62630505	-169.61088806
0.18000000	1852.27406525	1768.04698831	1552.33099098	1333.97082351	1328.52755992	1326.71061188	1165.33525095	352.05654941	-74.62791869	-169.63457977
0.19000000	1851.95406064	1768.76346499	1553.27496931	1334.61658973	1327.59935986	1326.65169410	1165.76574634	352.07148807	-74.62951006	-169.66015280
0.20000000	1851.71783274	1769.49104723	1554.17590110	1335.24608179	1326.74105124	1326.61037664	1166.18832071	352.08573827	-74.63127517	-169.68696804
0.21000000	1851.57979435	1770.19716131	1554.99699462	1335.82348364	1325.99188828	1326.59204826	1166.58182665	352.09893158	-74.63341002	-169.71438636
0.22000000	1851.55435827	1770.84923348	1555.70145818	1336.31297924	1325.39112519	1326.60209771	1166.92511673	352.11069956	-74.63611063	-169.74176865
0.23000000	1851.65593728	1771.41468999	1556.25250007	1336.67875254	1324.97801618	1326.64591374	1167.19704354	352.12067379	-74.63957299	-169.76847581
0.24000000	1851.89894419	1771.86095710	1556.61332859	1336.88498750	1324.79181545	1326.72888509	1167.37645967	352.12848583	-74.64399312	-169.79386871
0.25000000	1852.29779179	1772.15546107	1556.74715204	1336.89586806	1324.87177721	1326.85640053	1167.44221769	352.13376724	-74.64956702	-169.81730825
0.26000000	1852.86689287	1772.26562815	1556.61717872	1336.67557819	1325.25715567	1327.03384879	1167.37317019	352.13614961	-74.65649069	-169.83815530
0.27000000	1853.62066024	1772.15888461	1556.18661692	1336.18830184	1325.98720504	1327.26661863	1167.14816976	352.13526448	-74.66496014	-169.85577076
0.28000000	1854.57350668	1771.80265670	1555.41867494	1335.39822297	1327.10117953	1327.56009880	1166.74606897	352.13074343	-74.67517138	-169.86951551
0.29000000	1855.73984499	1771.16437067	1554.27656107	1334.26952553	1328.63833335	1327.91967805	1166.14572042	352.12221803	-74.68732041	-169.87875044
0.30000000	1857.12270162	1770.22314411	1552.74412545	1332.78347593	1330.61556332	1328.34815978	1165.33489761	352.10953443	-74.70148191	-169.88304608
0.31000000	1858.64095085	1769.04450081	1550.95777422	1331.04759061	1332.88453125	1328.82923999	1164.36730535	352.09412482	-74.71683382	-169.88352251
0.32000000	1860.17574970	1767.73269205	1549.12228962	1329.22597164	1335.22284012	1329.33805073	1163.32619903	352.07813222	-74.73215219	-169.88199427
0.33000000	1861.60807726	1766.39215183	1547.44277639	1327.48298803	1337.40774359	1329.84968362	1162.29497342	352.06370302	-74.74621116	-169.88027919
0.34000000	1862.82672523	1765.12131559	1546.11049403	1325.97262739	1339.23099741	1330.34064763	1161.35201438	352.05284242	-74.75786912	-169.88008811
0.35000000	1863.80113955	1763.95669242	1545.17376906	1324.74170424	1340.63407150	1330.80208381	1160.52399738	352.04609830	-74.76685431	-169.88202723
0.36000000	1864.54834781	1762.89825820	1544.59660519	1323.77380670	1341.64675910	1331.23376535	1159.80709156	352.04315880	-74.77340815	-169.88605111
0.37000000	1865.08599258	1761.94551657	1544.34191627	1323.05170567	1342.29999501	1331.63557701	1159.19707178	352.04370094	-74.77777865	-169.89210588
0.38000000	1865.43171644	1761.09797122	1544.37261617	1322.55817209	1342.62471405	1332.00740354	1158.68971289	352.04740172	-74.78021386	-169.90013765
0.39000000	1865.60316198	1760.35512581	1544.65161874	1322.27597688	1342.65185101	1332.34912970	1158.28078975	352.05393816	-74.78096181	-169.91009257
0.40000000	1865.61797178	1759.71648402	1545.14183784	1322.18789095	1342.41234071	1332.66064024	1157.96607721	352.06298729	-74.78027053	-169.92191675
0.41000000	1865.49378841	1759.18154951	1545.80618732	1322.27668524	1341.93711795	1332.94181992	1157.74135012	352.07422611	-74.77838806	-169.93555633
0.42000000	1865.24825445	1758.74982594	1546.60758104	1322.52513066	1341.25711754	1333.19255350	1157.60238333	352.08733165	-74.77556243	-169.95095743
0.43000000	1864.89901248	1758.42081700	1547.50893286	1322.91599813	1340.40327429	1333.41272573	1157.54495170	352.10198092	-74.77204168	-169.96806617
0.44000000	1864.46370509	1758.19402636	1548.47315663	1323.43205858	1339.40652299	1333.60222137	1157.56483009	352.11785094	-74.76807384	-169.98682869
0.45000000	1863.95997484	1758.06895767	1549.46316622	1324.05608293	1338.29779846	1333.76092518	1157.65779334	352.13461872	-74.76390694	-170.00719111
0.46000000	1863.40546432	1758.04511461	1550.44187547	1324.77084210	1337.10803551	1333.88872191	1157.81961631	352.15196129	-74.75978903	-170.02909956
